<!--?xml version="1.0" standalone="no"?-->
              <svg id="sw-js-blob-svg" viewBox="0 0 100 100" xmlns="http://www.w3.org/2000/svg" version="1.1">
                    <defs> 
                        <linearGradient id="sw-gradient" x1="0" x2="1" y1="1" y2="0">
                            <stop id="stop1" stop-color="rgba(235, 235, 235, 1)" offset="0%"></stop>
                            <stop id="stop2" stop-color="rgba(235, 235, 235, 1)" offset="100%"></stop>
                        </linearGradient>
                    </defs>
                <path fill="url(#sw-gradient)" d="M25,-35.2C31.6,-29.5,35.9,-21.3,38.5,-12.6C41.2,-4,42.3,5,40.3,13.7C38.3,22.4,33.3,30.7,26.1,36.6C18.9,42.5,9.4,46,0,46C-9.5,46,-18.9,42.5,-26.5,36.8C-34.1,31,-39.8,22.9,-42.2,14C-44.7,5.2,-43.9,-4.4,-40.2,-12.2C-36.5,-20,-29.8,-26,-22.6,-31.5C-15.5,-37,-7.7,-42,0.7,-43C9.1,-44,18.3,-40.8,25,-35.2Z" width="100%" height="100%" transform="translate(50 50)" stroke-width="0" style="transition: all 0.3s ease 0s;" stroke="url(#sw-gradient)"></path>
              </svg>